<mxfile host="app.diagrams.net" modified="2023-10-17T03:48:14.901Z" agent="Mozilla/5.0 (Windows NT 10.0; Win64; x64; rv:109.0) Gecko/20100101 Firefox/118.0" version="22.0.4" etag="8Imjrq4zByIBQiyVpDO0" type="github">
  <diagram name="Page-1" id="cwPD7X0vRoseEOO7md54">
    <mxGraphModel>
      <root>
        <mxCell id="0" />
        <mxCell id="1" parent="0" />
      </root>
    </mxGraphModel>
  </diagram>
</mxfile>
